<svg id="my-svg" width="100%" xmlns="http://www.w3.org/2000/svg" xmlns:xlink="http://www.w3.org/1999/xlink" style="max-width: 1794.5px; background-color: white;" viewBox="-61 -10 1794.5 1796" role="graphics-document document" aria-roledescription="sequence"><g><rect x="1483.5" y="1710" fill="#eaeaea" stroke="#666" width="200" height="65" name="SK" rx="3" ry="3" class="actor actor-bottom"/><text x="1583.5" y="1742.5" dominant-baseline="central" alignment-baseline="central" class="actor actor-box" style="text-anchor: middle; font-size: 16px; font-weight: 400;"><tspan x="1583.5" dy="-8">Skill registry</tspan></text><text x="1583.5" y="1742.5" dominant-baseline="central" alignment-baseline="central" class="actor actor-box" style="text-anchor: middle; font-size: 16px; font-weight: 400;"><tspan x="1583.5" dy="8">(/home/z/my-project/skills/)</tspan></text></g><g><rect x="1249" y="1710" fill="#eaeaea" stroke="#666" width="161" height="65" name="FS" rx="3" ry="3" class="actor actor-bottom"/><text x="1329.5" y="1742.5" dominant-baseline="central" alignment-baseline="central" class="actor actor-box" style="text-anchor: middle; font-size: 16px; font-weight: 400;"><tspan x="1329.5" dy="-8">Filesystem</tspan></text><text x="1329.5" y="1742.5" dominant-baseline="central" alignment-baseline="central" class="actor actor-box" style="text-anchor: middle; font-size: 16px; font-weight: 400;"><tspan x="1329.5" dy="8">(/home/z/my-project/)</tspan></text></g><g><rect x="1004" y="1710" fill="#eaeaea" stroke="#666" width="195" height="65" name="SM" rx="3" ry="3" class="actor actor-bottom"/><text x="1101.5" y="1742.5" dominant-baseline="central" alignment-baseline="central" class="actor actor-box" style="text-anchor: middle; font-size: 16px; font-weight: 400;"><tspan x="1101.5" dy="-8">Submodules</tspan></text><text x="1101.5" y="1742.5" dominant-baseline="central" alignment-baseline="central" class="actor actor-box" style="text-anchor: middle; font-size: 16px; font-weight: 400;"><tspan x="1101.5" dy="8">(standards + guard + skills)</tspan></text></g><g><rect x="804" y="1710" fill="#eaeaea" stroke="#666" width="150" height="65" name="Git" rx="3" ry="3" class="actor actor-bottom"/><text x="879" y="1742.5" dominant-baseline="central" alignment-baseline="central" class="actor actor-box" style="text-anchor: middle; font-size: 16px; font-weight: 400;"><tspan x="879" dy="0">git</tspan></text></g><g><rect x="502" y="1710" fill="#eaeaea" stroke="#666" width="150" height="65" name="BS" rx="3" ry="3" class="actor actor-bottom"/><text x="577" y="1742.5" dominant-baseline="central" alignment-baseline="central" class="actor actor-box" style="text-anchor: middle; font-size: 16px; font-weight: 400;"><tspan x="577" dy="0">bootstrap.sh</tspan></text></g><g><rect x="273" y="1710" fill="#eaeaea" stroke="#666" width="150" height="65" name="SB" rx="3" ry="3" class="actor actor-bottom"/><text x="348" y="1742.5" dominant-baseline="central" alignment-baseline="central" class="actor actor-box" style="text-anchor: middle; font-size: 16px; font-weight: 400;"><tspan x="348" dy="-8">Sandbox</tspan></text><text x="348" y="1742.5" dominant-baseline="central" alignment-baseline="central" class="actor actor-box" style="text-anchor: middle; font-size: 16px; font-weight: 400;"><tspan x="348" dy="8">(Z.ai container)</tspan></text></g><g/><g><line id="actor6" x1="1583.5" y1="65" x2="1583.5" y2="1710" class="actor-line 200" stroke-width="0.5px" stroke="#999" name="SK" data-et="life-line" data-id="SK"/><g id="root-6" data-et="participant" data-type="participant" data-id="SK"><rect x="1483.5" y="0" fill="#eaeaea" stroke="#666" width="200" height="65" name="SK" rx="3" ry="3" class="actor actor-top"/><text x="1583.5" y="32.5" dominant-baseline="central" alignment-baseline="central" class="actor actor-box" style="text-anchor: middle; font-size: 16px; font-weight: 400;"><tspan x="1583.5" dy="-8">Skill registry</tspan></text><text x="1583.5" y="32.5" dominant-baseline="central" alignment-baseline="central" class="actor actor-box" style="text-anchor: middle; font-size: 16px; font-weight: 400;"><tspan x="1583.5" dy="8">(/home/z/my-project/skills/)</tspan></text></g></g><g><line id="actor5" x1="1329.5" y1="65" x2="1329.5" y2="1710" class="actor-line 200" stroke-width="0.5px" stroke="#999" name="FS" data-et="life-line" data-id="FS"/><g id="root-5" data-et="participant" data-type="participant" data-id="FS"><rect x="1249" y="0" fill="#eaeaea" stroke="#666" width="161" height="65" name="FS" rx="3" ry="3" class="actor actor-top"/><text x="1329.5" y="32.5" dominant-baseline="central" alignment-baseline="central" class="actor actor-box" style="text-anchor: middle; font-size: 16px; font-weight: 400;"><tspan x="1329.5" dy="-8">Filesystem</tspan></text><text x="1329.5" y="32.5" dominant-baseline="central" alignment-baseline="central" class="actor actor-box" style="text-anchor: middle; font-size: 16px; font-weight: 400;"><tspan x="1329.5" dy="8">(/home/z/my-project/)</tspan></text></g></g><g><line id="actor4" x1="1101.5" y1="65" x2="1101.5" y2="1710" class="actor-line 200" stroke-width="0.5px" stroke="#999" name="SM" data-et="life-line" data-id="SM"/><g id="root-4" data-et="participant" data-type="participant" data-id="SM"><rect x="1004" y="0" fill="#eaeaea" stroke="#666" width="195" height="65" name="SM" rx="3" ry="3" class="actor actor-top"/><text x="1101.5" y="32.5" dominant-baseline="central" alignment-baseline="central" class="actor actor-box" style="text-anchor: middle; font-size: 16px; font-weight: 400;"><tspan x="1101.5" dy="-8">Submodules</tspan></text><text x="1101.5" y="32.5" dominant-baseline="central" alignment-baseline="central" class="actor actor-box" style="text-anchor: middle; font-size: 16px; font-weight: 400;"><tspan x="1101.5" dy="8">(standards + guard + skills)</tspan></text></g></g><g><line id="actor3" x1="879" y1="65" x2="879" y2="1710" class="actor-line 200" stroke-width="0.5px" stroke="#999" name="Git" data-et="life-line" data-id="Git"/><g id="root-3" data-et="participant" data-type="participant" data-id="Git"><rect x="804" y="0" fill="#eaeaea" stroke="#666" width="150" height="65" name="Git" rx="3" ry="3" class="actor actor-top"/><text x="879" y="32.5" dominant-baseline="central" alignment-baseline="central" class="actor actor-box" style="text-anchor: middle; font-size: 16px; font-weight: 400;"><tspan x="879" dy="0">git</tspan></text></g></g><g><line id="actor2" x1="577" y1="65" x2="577" y2="1710" class="actor-line 200" stroke-width="0.5px" stroke="#999" name="BS" data-et="life-line" data-id="BS"/><g id="root-2" data-et="participant" data-type="participant" data-id="BS"><rect x="502" y="0" fill="#eaeaea" stroke="#666" width="150" height="65" name="BS" rx="3" ry="3" class="actor actor-top"/><text x="577" y="32.5" dominant-baseline="central" alignment-baseline="central" class="actor actor-box" style="text-anchor: middle; font-size: 16px; font-weight: 400;"><tspan x="577" dy="0">bootstrap.sh</tspan></text></g></g><g><line id="actor1" x1="348" y1="65" x2="348" y2="1710" class="actor-line 200" stroke-width="0.5px" stroke="#999" name="SB" data-et="life-line" data-id="SB"/><g id="root-1" data-et="participant" data-type="participant" data-id="SB"><rect x="273" y="0" fill="#eaeaea" stroke="#666" width="150" height="65" name="SB" rx="3" ry="3" class="actor actor-top"/><text x="348" y="32.5" dominant-baseline="central" alignment-baseline="central" class="actor actor-box" style="text-anchor: middle; font-size: 16px; font-weight: 400;"><tspan x="348" dy="-8">Sandbox</tspan></text><text x="348" y="32.5" dominant-baseline="central" alignment-baseline="central" class="actor actor-box" style="text-anchor: middle; font-size: 16px; font-weight: 400;"><tspan x="348" dy="8">(Z.ai container)</tspan></text></g></g><g><line id="actor0" x1="75" y1="80" x2="75" y2="1710" class="actor-line 200" stroke-width="0.5px" stroke="#999" name="U" data-et="life-line" data-id="U"/></g><style>#my-svg{font-family:Helvetica;font-size:16px;fill:#1e3a8a;}@keyframes edge-animation-frame{from{stroke-dashoffset:0;}}@keyframes dash{to{stroke-dashoffset:0;}}#my-svg .edge-animation-slow{stroke-dasharray:9,5!important;stroke-dashoffset:900;animation:dash 50s linear infinite;stroke-linecap:round;}#my-svg .edge-animation-fast{stroke-dasharray:9,5!important;stroke-dashoffset:900;animation:dash 20s linear infinite;stroke-linecap:round;}#my-svg .error-icon{fill:hsl(34.2857142857, 94.5945945946%, 97.7450980392%);}#my-svg .error-text{fill:rgb(0.3108108108, 4.972972973, 11.1891891893);stroke:rgb(0.3108108108, 4.972972973, 11.1891891893);}#my-svg .edge-thickness-normal{stroke-width:1px;}#my-svg .edge-thickness-thick{stroke-width:3.5px;}#my-svg .edge-pattern-solid{stroke-dasharray:0;}#my-svg .edge-thickness-invisible{stroke-width:0;fill:none;}#my-svg .edge-pattern-dashed{stroke-dasharray:3;}#my-svg .edge-pattern-dotted{stroke-dasharray:2;}#my-svg .marker{fill:#0b0b0b;stroke:#0b0b0b;}#my-svg .marker.cross{stroke:#0b0b0b;}#my-svg svg{font-family:Helvetica;font-size:16px;}#my-svg p{margin:0;}#my-svg .actor{stroke:#166534;fill:#dcfce7;stroke-width:1;}#my-svg rect.actor.outer-path[data-look="neo"]{filter:drop-shadow( 1px 2px 2px rgba(185,185,185,1));}#my-svg rect.note[data-look="neo"]{stroke:hsl(52.6829268293, 60%, 73.9215686275%);fill:#fff5ad;filter:drop-shadow( 1px 2px 2px rgba(185,185,185,1));}#my-svg text.actor&gt;tspan{fill:#14532d;stroke:none;}#my-svg .actor-line{stroke:#166534;}#my-svg .innerArc{stroke-width:1.5;stroke-dasharray:none;}#my-svg .messageLine0{stroke-width:1.5;stroke-dasharray:none;stroke:#666666;}#my-svg .messageLine1{stroke-width:1.5;stroke-dasharray:2,2;stroke:#666666;}#my-svg [id$="-arrowhead"] path{fill:#666666;stroke:#666666;}#my-svg .sequenceNumber{fill:#f4f4f4;}#my-svg [id$="-sequencenumber"]{fill:#666666;}#my-svg [id$="-crosshead"] path{fill:#666666;stroke:#666666;}#my-svg .messageText{fill:#374151;stroke:none;}#my-svg .labelBox{stroke:#166534;fill:#dcfce7;filter:none;}#my-svg .labelText,#my-svg .labelText&gt;tspan{fill:#14532d;stroke:none;}#my-svg .loopText,#my-svg .loopText&gt;tspan{fill:#14532d;stroke:none;}#my-svg .sectionTitle,#my-svg .sectionTitle&gt;tspan{fill:#14532d;stroke:none;}#my-svg .loopLine{stroke-width:2px;stroke-dasharray:2,2;stroke:#166534;fill:#166534;}#my-svg .note{stroke:hsl(52.6829268293, 60%, 73.9215686275%);fill:#fff5ad;}#my-svg .noteText,#my-svg .noteText&gt;tspan{fill:#333;stroke:none;font-weight:normal;}#my-svg .activation0{fill:hsl(94.2857142857, 94.5945945946%, 92.7450980392%);stroke:hsl(94.2857142857, 94.5945945946%, 82.7450980392%);}#my-svg .activation1{fill:hsl(94.2857142857, 94.5945945946%, 92.7450980392%);stroke:hsl(94.2857142857, 94.5945945946%, 82.7450980392%);}#my-svg .activation2{fill:hsl(94.2857142857, 94.5945945946%, 92.7450980392%);stroke:hsl(94.2857142857, 94.5945945946%, 82.7450980392%);}#my-svg .actorPopupMenu{position:absolute;}#my-svg .actorPopupMenuPanel{position:absolute;fill:#dcfce7;box-shadow:0px 8px 16px 0px rgba(0,0,0,0.2);filter:drop-shadow(3px 5px 2px rgb(0 0 0 / 0.4));}#my-svg .actor-man circle,#my-svg line{fill:#dcfce7;stroke-width:2px;}#my-svg g rect.rect{filter:drop-shadow( 1px 2px 2px rgba(185,185,185,1));stroke:#1e40af;}#my-svg .node .neo-node{stroke:#1e40af;}#my-svg [data-look="neo"].node rect,#my-svg [data-look="neo"].cluster rect,#my-svg [data-look="neo"].node polygon{stroke:url(#my-svg-gradient);filter:drop-shadow( 1px 2px 2px rgba(185,185,185,1));}#my-svg [data-look="neo"].node path{stroke:url(#my-svg-gradient);stroke-width:1px;}#my-svg [data-look="neo"].node .outer-path{filter:drop-shadow( 1px 2px 2px rgba(185,185,185,1));}#my-svg [data-look="neo"].node .neo-line path{stroke:#1e40af;filter:none;}#my-svg [data-look="neo"].node circle{stroke:url(#my-svg-gradient);filter:drop-shadow( 1px 2px 2px rgba(185,185,185,1));}#my-svg [data-look="neo"].node circle .state-start{fill:#000000;}#my-svg [data-look="neo"].icon-shape .icon{fill:url(#my-svg-gradient);filter:drop-shadow( 1px 2px 2px rgba(185,185,185,1));}#my-svg [data-look="neo"].icon-shape .icon-neo path{stroke:url(#my-svg-gradient);filter:drop-shadow( 1px 2px 2px rgba(185,185,185,1));}#my-svg :root{--mermaid-font-family:"trebuchet ms",verdana,arial,sans-serif;}</style><g/><defs><symbol id="my-svg-computer" width="24" height="24"><path transform="scale(.5)" d="M2 2v13h20v-13h-20zm18 11h-16v-9h16v9zm-10.228 6l.466-1h3.524l.467 1h-4.457zm14.228 3h-24l2-6h2.104l-1.33 4h18.45l-1.297-4h2.073l2 6zm-5-10h-14v-7h14v7z"/></symbol></defs><defs><symbol id="my-svg-database" fill-rule="evenodd" clip-rule="evenodd"><path transform="scale(.5)" d="M12.258.001l.256.004.255.005.253.008.251.01.249.012.247.015.246.016.242.019.241.02.239.023.236.024.233.027.231.028.229.031.225.032.223.034.22.036.217.038.214.04.211.041.208.043.205.045.201.046.198.048.194.05.191.051.187.053.183.054.18.056.175.057.172.059.168.06.163.061.16.063.155.064.15.066.074.033.073.033.071.034.07.034.069.035.068.035.067.035.066.035.064.036.064.036.062.036.06.036.06.037.058.037.058.037.055.038.055.038.053.038.052.038.051.039.05.039.048.039.047.039.045.04.044.04.043.04.041.04.04.041.039.041.037.041.036.041.034.041.033.042.032.042.03.042.029.042.027.042.026.043.024.043.023.043.021.043.02.043.018.044.017.043.015.044.013.044.012.044.011.045.009.044.007.045.006.045.004.045.002.045.001.045v17l-.001.045-.002.045-.004.045-.006.045-.007.045-.009.044-.011.045-.012.044-.013.044-.015.044-.017.043-.018.044-.02.043-.021.043-.023.043-.024.043-.026.043-.027.042-.029.042-.03.042-.032.042-.033.042-.034.041-.036.041-.037.041-.039.041-.04.041-.041.04-.043.04-.044.04-.045.04-.047.039-.048.039-.05.039-.051.039-.052.038-.053.038-.055.038-.055.038-.058.037-.058.037-.06.037-.06.036-.062.036-.064.036-.064.036-.066.035-.067.035-.068.035-.069.035-.07.034-.071.034-.073.033-.074.033-.15.066-.155.064-.16.063-.163.061-.168.06-.172.059-.175.057-.18.056-.183.054-.187.053-.191.051-.194.05-.198.048-.201.046-.205.045-.208.043-.211.041-.214.04-.217.038-.22.036-.223.034-.225.032-.229.031-.231.028-.233.027-.236.024-.239.023-.241.02-.242.019-.246.016-.247.015-.249.012-.251.01-.253.008-.255.005-.256.004-.258.001-.258-.001-.256-.004-.255-.005-.253-.008-.251-.01-.249-.012-.247-.015-.245-.016-.243-.019-.241-.02-.238-.023-.236-.024-.234-.027-.231-.028-.228-.031-.226-.032-.223-.034-.22-.036-.217-.038-.214-.04-.211-.041-.208-.043-.204-.045-.201-.046-.198-.048-.195-.05-.19-.051-.187-.053-.184-.054-.179-.056-.176-.057-.172-.059-.167-.06-.164-.061-.159-.063-.155-.064-.151-.066-.074-.033-.072-.033-.072-.034-.07-.034-.069-.035-.068-.035-.067-.035-.066-.035-.064-.036-.063-.036-.062-.036-.061-.036-.06-.037-.058-.037-.057-.037-.056-.038-.055-.038-.053-.038-.052-.038-.051-.039-.049-.039-.049-.039-.046-.039-.046-.04-.044-.04-.043-.04-.041-.04-.04-.041-.039-.041-.037-.041-.036-.041-.034-.041-.033-.042-.032-.042-.03-.042-.029-.042-.027-.042-.026-.043-.024-.043-.023-.043-.021-.043-.02-.043-.018-.044-.017-.043-.015-.044-.013-.044-.012-.044-.011-.045-.009-.044-.007-.045-.006-.045-.004-.045-.002-.045-.001-.045v-17l.001-.045.002-.045.004-.045.006-.045.007-.045.009-.044.011-.045.012-.044.013-.044.015-.044.017-.043.018-.044.02-.043.021-.043.023-.043.024-.043.026-.043.027-.042.029-.042.03-.042.032-.042.033-.042.034-.041.036-.041.037-.041.039-.041.04-.041.041-.04.043-.04.044-.04.046-.04.046-.039.049-.039.049-.039.051-.039.052-.038.053-.038.055-.038.056-.038.057-.037.058-.037.06-.037.061-.036.062-.036.063-.036.064-.036.066-.035.067-.035.068-.035.069-.035.07-.034.072-.034.072-.033.074-.033.151-.066.155-.064.159-.063.164-.061.167-.06.172-.059.176-.057.179-.056.184-.054.187-.053.19-.051.195-.05.198-.048.201-.046.204-.045.208-.043.211-.041.214-.04.217-.038.22-.036.223-.034.226-.032.228-.031.231-.028.234-.027.236-.024.238-.023.241-.02.243-.019.245-.016.247-.015.249-.012.251-.01.253-.008.255-.005.256-.004.258-.001.258.001zm-9.258 20.499v.01l.001.021.003.021.004.022.005.021.006.022.007.022.009.023.01.022.011.023.012.023.013.023.015.023.016.024.017.023.018.024.019.024.021.024.022.025.023.024.024.025.052.049.056.05.061.051.066.051.07.051.075.051.079.052.084.052.088.052.092.052.097.052.102.051.105.052.11.052.114.051.119.051.123.051.127.05.131.05.135.05.139.048.144.049.147.047.152.047.155.047.16.045.163.045.167.043.171.043.176.041.178.041.183.039.187.039.19.037.194.035.197.035.202.033.204.031.209.03.212.029.216.027.219.025.222.024.226.021.23.02.233.018.236.016.24.015.243.012.246.01.249.008.253.005.256.004.259.001.26-.001.257-.004.254-.005.25-.008.247-.011.244-.012.241-.014.237-.016.233-.018.231-.021.226-.021.224-.024.22-.026.216-.027.212-.028.21-.031.205-.031.202-.034.198-.034.194-.036.191-.037.187-.039.183-.04.179-.04.175-.042.172-.043.168-.044.163-.045.16-.046.155-.046.152-.047.148-.048.143-.049.139-.049.136-.05.131-.05.126-.05.123-.051.118-.052.114-.051.11-.052.106-.052.101-.052.096-.052.092-.052.088-.053.083-.051.079-.052.074-.052.07-.051.065-.051.06-.051.056-.05.051-.05.023-.024.023-.025.021-.024.02-.024.019-.024.018-.024.017-.024.015-.023.014-.024.013-.023.012-.023.01-.023.01-.022.008-.022.006-.022.006-.022.004-.022.004-.021.001-.021.001-.021v-4.127l-.077.055-.08.053-.083.054-.085.053-.087.052-.09.052-.093.051-.095.05-.097.05-.1.049-.102.049-.105.048-.106.047-.109.047-.111.046-.114.045-.115.045-.118.044-.12.043-.122.042-.124.042-.126.041-.128.04-.13.04-.132.038-.134.038-.135.037-.138.037-.139.035-.142.035-.143.034-.144.033-.147.032-.148.031-.15.03-.151.03-.153.029-.154.027-.156.027-.158.026-.159.025-.161.024-.162.023-.163.022-.165.021-.166.02-.167.019-.169.018-.169.017-.171.016-.173.015-.173.014-.175.013-.175.012-.177.011-.178.01-.179.008-.179.008-.181.006-.182.005-.182.004-.184.003-.184.002h-.37l-.184-.002-.184-.003-.182-.004-.182-.005-.181-.006-.179-.008-.179-.008-.178-.01-.176-.011-.176-.012-.175-.013-.173-.014-.172-.015-.171-.016-.17-.017-.169-.018-.167-.019-.166-.02-.165-.021-.163-.022-.162-.023-.161-.024-.159-.025-.157-.026-.156-.027-.155-.027-.153-.029-.151-.03-.15-.03-.148-.031-.146-.032-.145-.033-.143-.034-.141-.035-.14-.035-.137-.037-.136-.037-.134-.038-.132-.038-.13-.04-.128-.04-.126-.041-.124-.042-.122-.042-.12-.044-.117-.043-.116-.045-.113-.045-.112-.046-.109-.047-.106-.047-.105-.048-.102-.049-.1-.049-.097-.05-.095-.05-.093-.052-.09-.051-.087-.052-.085-.053-.083-.054-.08-.054-.077-.054v4.127zm0-5.654v.011l.001.021.003.021.004.021.005.022.006.022.007.022.009.022.01.022.011.023.012.023.013.023.015.024.016.023.017.024.018.024.019.024.021.024.022.024.023.025.024.024.052.05.056.05.061.05.066.051.07.051.075.052.079.051.084.052.088.052.092.052.097.052.102.052.105.052.11.051.114.051.119.052.123.05.127.051.131.05.135.049.139.049.144.048.147.048.152.047.155.046.16.045.163.045.167.044.171.042.176.042.178.04.183.04.187.038.19.037.194.036.197.034.202.033.204.032.209.03.212.028.216.027.219.025.222.024.226.022.23.02.233.018.236.016.24.014.243.012.246.01.249.008.253.006.256.003.259.001.26-.001.257-.003.254-.006.25-.008.247-.01.244-.012.241-.015.237-.016.233-.018.231-.02.226-.022.224-.024.22-.025.216-.027.212-.029.21-.03.205-.032.202-.033.198-.035.194-.036.191-.037.187-.039.183-.039.179-.041.175-.042.172-.043.168-.044.163-.045.16-.045.155-.047.152-.047.148-.048.143-.048.139-.05.136-.049.131-.05.126-.051.123-.051.118-.051.114-.052.11-.052.106-.052.101-.052.096-.052.092-.052.088-.052.083-.052.079-.052.074-.051.07-.052.065-.051.06-.05.056-.051.051-.049.023-.025.023-.024.021-.025.02-.024.019-.024.018-.024.017-.024.015-.023.014-.023.013-.024.012-.022.01-.023.01-.023.008-.022.006-.022.006-.022.004-.021.004-.022.001-.021.001-.021v-4.139l-.077.054-.08.054-.083.054-.085.052-.087.053-.09.051-.093.051-.095.051-.097.05-.1.049-.102.049-.105.048-.106.047-.109.047-.111.046-.114.045-.115.044-.118.044-.12.044-.122.042-.124.042-.126.041-.128.04-.13.039-.132.039-.134.038-.135.037-.138.036-.139.036-.142.035-.143.033-.144.033-.147.033-.148.031-.15.03-.151.03-.153.028-.154.028-.156.027-.158.026-.159.025-.161.024-.162.023-.163.022-.165.021-.166.02-.167.019-.169.018-.169.017-.171.016-.173.015-.173.014-.175.013-.175.012-.177.011-.178.009-.179.009-.179.007-.181.007-.182.005-.182.004-.184.003-.184.002h-.37l-.184-.002-.184-.003-.182-.004-.182-.005-.181-.007-.179-.007-.179-.009-.178-.009-.176-.011-.176-.012-.175-.013-.173-.014-.172-.015-.171-.016-.17-.017-.169-.018-.167-.019-.166-.02-.165-.021-.163-.022-.162-.023-.161-.024-.159-.025-.157-.026-.156-.027-.155-.028-.153-.028-.151-.03-.15-.03-.148-.031-.146-.033-.145-.033-.143-.033-.141-.035-.14-.036-.137-.036-.136-.037-.134-.038-.132-.039-.13-.039-.128-.04-.126-.041-.124-.042-.122-.043-.12-.043-.117-.044-.116-.044-.113-.046-.112-.046-.109-.046-.106-.047-.105-.048-.102-.049-.1-.049-.097-.05-.095-.051-.093-.051-.09-.051-.087-.053-.085-.052-.083-.054-.08-.054-.077-.054v4.139zm0-5.666v.011l.001.02.003.022.004.021.005.022.006.021.007.022.009.023.01.022.011.023.012.023.013.023.015.023.016.024.017.024.018.023.019.024.021.025.022.024.023.024.024.025.052.05.056.05.061.05.066.051.07.051.075.052.079.051.084.052.088.052.092.052.097.052.102.052.105.051.11.052.114.051.119.051.123.051.127.05.131.05.135.05.139.049.144.048.147.048.152.047.155.046.16.045.163.045.167.043.171.043.176.042.178.04.183.04.187.038.19.037.194.036.197.034.202.033.204.032.209.03.212.028.216.027.219.025.222.024.226.021.23.02.233.018.236.017.24.014.243.012.246.01.249.008.253.006.256.003.259.001.26-.001.257-.003.254-.006.25-.008.247-.01.244-.013.241-.014.237-.016.233-.018.231-.02.226-.022.224-.024.22-.025.216-.027.212-.029.21-.03.205-.032.202-.033.198-.035.194-.036.191-.037.187-.039.183-.039.179-.041.175-.042.172-.043.168-.044.163-.045.16-.045.155-.047.152-.047.148-.048.143-.049.139-.049.136-.049.131-.051.126-.05.123-.051.118-.052.114-.051.11-.052.106-.052.101-.052.096-.052.092-.052.088-.052.083-.052.079-.052.074-.052.07-.051.065-.051.06-.051.056-.05.051-.049.023-.025.023-.025.021-.024.02-.024.019-.024.018-.024.017-.024.015-.023.014-.024.013-.023.012-.023.01-.022.01-.023.008-.022.006-.022.006-.022.004-.022.004-.021.001-.021.001-.021v-4.153l-.077.054-.08.054-.083.053-.085.053-.087.053-.09.051-.093.051-.095.051-.097.05-.1.049-.102.048-.105.048-.106.048-.109.046-.111.046-.114.046-.115.044-.118.044-.12.043-.122.043-.124.042-.126.041-.128.04-.13.039-.132.039-.134.038-.135.037-.138.036-.139.036-.142.034-.143.034-.144.033-.147.032-.148.032-.15.03-.151.03-.153.028-.154.028-.156.027-.158.026-.159.024-.161.024-.162.023-.163.023-.165.021-.166.02-.167.019-.169.018-.169.017-.171.016-.173.015-.173.014-.175.013-.175.012-.177.01-.178.01-.179.009-.179.007-.181.006-.182.006-.182.004-.184.003-.184.001-.185.001-.185-.001-.184-.001-.184-.003-.182-.004-.182-.006-.181-.006-.179-.007-.179-.009-.178-.01-.176-.01-.176-.012-.175-.013-.173-.014-.172-.015-.171-.016-.17-.017-.169-.018-.167-.019-.166-.02-.165-.021-.163-.023-.162-.023-.161-.024-.159-.024-.157-.026-.156-.027-.155-.028-.153-.028-.151-.03-.15-.03-.148-.032-.146-.032-.145-.033-.143-.034-.141-.034-.14-.036-.137-.036-.136-.037-.134-.038-.132-.039-.13-.039-.128-.041-.126-.041-.124-.041-.122-.043-.12-.043-.117-.044-.116-.044-.113-.046-.112-.046-.109-.046-.106-.048-.105-.048-.102-.048-.1-.05-.097-.049-.095-.051-.093-.051-.09-.052-.087-.052-.085-.053-.083-.053-.08-.054-.077-.054v4.153zm8.74-8.179l-.257.004-.254.005-.25.008-.247.011-.244.012-.241.014-.237.016-.233.018-.231.021-.226.022-.224.023-.22.026-.216.027-.212.028-.21.031-.205.032-.202.033-.198.034-.194.036-.191.038-.187.038-.183.04-.179.041-.175.042-.172.043-.168.043-.163.045-.16.046-.155.046-.152.048-.148.048-.143.048-.139.049-.136.05-.131.05-.126.051-.123.051-.118.051-.114.052-.11.052-.106.052-.101.052-.096.052-.092.052-.088.052-.083.052-.079.052-.074.051-.07.052-.065.051-.06.05-.056.05-.051.05-.023.025-.023.024-.021.024-.02.025-.019.024-.018.024-.017.023-.015.024-.014.023-.013.023-.012.023-.01.023-.01.022-.008.022-.006.023-.006.021-.004.022-.004.021-.001.021-.001.021.001.021.001.021.004.021.004.022.006.021.006.023.008.022.01.022.01.023.012.023.013.023.014.023.015.024.017.023.018.024.019.024.02.025.021.024.023.024.023.025.051.05.056.05.06.05.065.051.07.052.074.051.079.052.083.052.088.052.092.052.096.052.101.052.106.052.11.052.114.052.118.051.123.051.126.051.131.05.136.05.139.049.143.048.148.048.152.048.155.046.16.046.163.045.168.043.172.043.175.042.179.041.183.04.187.038.191.038.194.036.198.034.202.033.205.032.21.031.212.028.216.027.22.026.224.023.226.022.231.021.233.018.237.016.241.014.244.012.247.011.25.008.254.005.257.004.26.001.26-.001.257-.004.254-.005.25-.008.247-.011.244-.012.241-.014.237-.016.233-.018.231-.021.226-.022.224-.023.22-.026.216-.027.212-.028.21-.031.205-.032.202-.033.198-.034.194-.036.191-.038.187-.038.183-.04.179-.041.175-.042.172-.043.168-.043.163-.045.16-.046.155-.046.152-.048.148-.048.143-.048.139-.049.136-.05.131-.05.126-.051.123-.051.118-.051.114-.052.11-.052.106-.052.101-.052.096-.052.092-.052.088-.052.083-.052.079-.052.074-.051.07-.052.065-.051.06-.05.056-.05.051-.05.023-.025.023-.024.021-.024.02-.025.019-.024.018-.024.017-.023.015-.024.014-.023.013-.023.012-.023.01-.023.01-.022.008-.022.006-.023.006-.021.004-.022.004-.021.001-.021.001-.021-.001-.021-.001-.021-.004-.021-.004-.022-.006-.021-.006-.023-.008-.022-.01-.022-.01-.023-.012-.023-.013-.023-.014-.023-.015-.024-.017-.023-.018-.024-.019-.024-.02-.025-.021-.024-.023-.024-.023-.025-.051-.05-.056-.05-.06-.05-.065-.051-.07-.052-.074-.051-.079-.052-.083-.052-.088-.052-.092-.052-.096-.052-.101-.052-.106-.052-.11-.052-.114-.052-.118-.051-.123-.051-.126-.051-.131-.05-.136-.05-.139-.049-.143-.048-.148-.048-.152-.048-.155-.046-.16-.046-.163-.045-.168-.043-.172-.043-.175-.042-.179-.041-.183-.04-.187-.038-.191-.038-.194-.036-.198-.034-.202-.033-.205-.032-.21-.031-.212-.028-.216-.027-.22-.026-.224-.023-.226-.022-.231-.021-.233-.018-.237-.016-.241-.014-.244-.012-.247-.011-.25-.008-.254-.005-.257-.004-.26-.001-.26.001z"/></symbol></defs><defs><symbol id="my-svg-clock" width="24" height="24"><path transform="scale(.5)" d="M12 2c5.514 0 10 4.486 10 10s-4.486 10-10 10-10-4.486-10-10 4.486-10 10-10zm0-2c-6.627 0-12 5.373-12 12s5.373 12 12 12 12-5.373 12-12-5.373-12-12-12zm5.848 12.459c.202.038.202.333.001.372-1.907.361-6.045 1.111-6.547 1.111-.719 0-1.301-.582-1.301-1.301 0-.512.77-5.447 1.125-7.445.034-.192.312-.181.343.014l.985 6.238 5.394 1.011z"/></symbol></defs><defs><marker id="my-svg-arrowhead" refX="7.9" refY="5" markerUnits="userSpaceOnUse" markerWidth="12" markerHeight="12" orient="auto-start-reverse"><path d="M -1 0 L 10 5 L 0 10 z"/></marker></defs><defs><marker id="my-svg-crosshead" markerWidth="15" markerHeight="8" orient="auto" refX="4" refY="4.5"><path fill="none" stroke="#000000" stroke-width="1pt" d="M 1,2 L 6,7 M 6,2 L 1,7" style="stroke-dasharray: 0, 0;"/></marker></defs><defs><marker id="my-svg-filled-head" refX="15.5" refY="7" markerWidth="20" markerHeight="28" orient="auto"><path d="M 18,7 L9,13 L14,7 L9,1 Z"/></marker></defs><defs><marker id="my-svg-sequencenumber" refX="15" refY="15" markerWidth="60" markerHeight="40" orient="auto"><circle cx="15" cy="15" r="6"/></marker></defs><defs><marker id="my-svg-solidTopArrowHead" refX="7.9" refY="7.25" markerUnits="userSpaceOnUse" markerWidth="12" markerHeight="12" orient="auto-start-reverse"><path d="M 0 0 L 10 8 L 0 8 z"/></marker></defs><defs><marker id="my-svg-solidBottomArrowHead" refX="7.9" refY="0.75" markerUnits="userSpaceOnUse" markerWidth="12" markerHeight="12" orient="auto-start-reverse"><path d="M 0 0 L 10 0 L 0 8 z"/></marker></defs><defs><marker id="my-svg-stickTopArrowHead" refX="7.5" refY="7" markerUnits="userSpaceOnUse" markerWidth="12" markerHeight="12" orient="auto-start-reverse"><path d="M 0 0 L 7 7" stroke="black" stroke-width="1.5" fill="none"/></marker></defs><defs><marker id="my-svg-stickBottomArrowHead" refX="7.5" refY="0" markerUnits="userSpaceOnUse" markerWidth="12" markerHeight="12" orient="auto-start-reverse"><path d="M 0 7 L 7 0" stroke="black" stroke-width="1.5" fill="none"/></marker></defs><g data-et="note" data-id="i1"><rect x="50" y="75" fill="#EDF2AE" stroke="#666" width="323" height="54" class="note"/><text x="212" y="80" text-anchor="middle" dominant-baseline="middle" alignment-baseline="middle" class="noteText" dy="1em" style="font-size: 16px; font-weight: 400;"><tspan x="212">Session start: fresh sandbox,</tspan></text><text x="212" y="97" text-anchor="middle" dominant-baseline="middle" alignment-baseline="middle" class="noteText" dy="1em" style="font-size: 16px; font-weight: 400;"><tspan x="212">no custom skills loaded</tspan></text></g><g data-et="note" data-id="i4"><rect x="476" y="231" fill="#EDF2AE" stroke="#666" width="202" height="54" class="note"/><text x="577" y="236" text-anchor="middle" dominant-baseline="middle" alignment-baseline="middle" class="noteText" dy="1em" style="font-size: 16px; font-weight: 400;"><tspan x="577">Step 1: ensure Z-ai-platform</tspan></text><text x="577" y="253" text-anchor="middle" dominant-baseline="middle" alignment-baseline="middle" class="noteText" dy="1em" style="font-size: 16px; font-weight: 400;"><tspan x="577">is present</tspan></text></g><g data-et="control-structure" data-id="i11"><line x1="566" y1="295" x2="1340.5" y2="295" class="loopLine"/><line x1="1340.5" y1="295" x2="1340.5" y2="585.5" class="loopLine"/><line x1="566" y1="585.5" x2="1340.5" y2="585.5" class="loopLine"/><line x1="566" y1="295" x2="566" y2="585.5" class="loopLine"/><line x1="566" y1="453.5" x2="1340.5" y2="453.5" class="loopLine" style="stroke-dasharray: 3, 3;"/><polygon points="566,295 616,295 616,308 607.6,315 566,315" class="labelBox"/><text x="591" y="308" text-anchor="middle" dominant-baseline="middle" alignment-baseline="middle" class="labelText" style="font-size: 16px; font-weight: 400;">alt</text><text x="978.25" y="313" text-anchor="middle" class="loopText" style="font-size: 16px; font-weight: 400;"><tspan x="978.25">[Not yet cloned]</tspan></text><text x="953.25" y="471" text-anchor="middle" class="sectionTitle" style="font-size: 16px; font-weight: 400;">[Already cloned]</text></g><g data-et="note" data-id="i12"><rect x="474" y="595.5" fill="#EDF2AE" stroke="#666" width="206" height="54" class="note"/><text x="577" y="601" text-anchor="middle" dominant-baseline="middle" alignment-baseline="middle" class="noteText" dy="1em" style="font-size: 16px; font-weight: 400;"><tspan x="577">Step 2: symlink skills</tspan></text><text x="577" y="618" text-anchor="middle" dominant-baseline="middle" alignment-baseline="middle" class="noteText" dy="1em" style="font-size: 16px; font-weight: 400;"><tspan x="577">into sandbox-visible location</tspan></text></g><g data-et="note" data-id="i18"><rect x="1354.5" y="887.5" fill="#EDF2AE" stroke="#666" width="161" height="37" class="note"/><text x="1435" y="893" text-anchor="middle" dominant-baseline="middle" alignment-baseline="middle" class="noteText" dy="1em" style="font-size: 16px; font-weight: 400;"><tspan x="1435">LINK &lt;name&gt;</tspan></text></g><g data-et="note" data-id="i21"><rect x="1354.5" y="1025.5" fill="#EDF2AE" stroke="#666" width="161" height="37" class="note"/><text x="1435" y="1031" text-anchor="middle" dominant-baseline="middle" alignment-baseline="middle" class="noteText" dy="1em" style="font-size: 16px; font-weight: 400;"><tspan x="1435">updated</tspan></text></g><g data-et="note" data-id="i25"><rect x="1354.5" y="1209.5" fill="#EDF2AE" stroke="#666" width="204" height="54" class="note"/><text x="1457" y="1215" text-anchor="middle" dominant-baseline="middle" alignment-baseline="middle" class="noteText" dy="1em" style="font-size: 16px; font-weight: 400;"><tspan x="1457">REPLACE</tspan></text><text x="1457" y="1232" text-anchor="middle" dominant-baseline="middle" alignment-baseline="middle" class="noteText" dy="1em" style="font-size: 16px; font-weight: 400;"><tspan x="1457">(sandbox version backed up)</tspan></text></g><g data-et="control-structure" data-id="i26"><line x1="566" y1="796.5" x2="1568.5" y2="796.5" class="loopLine"/><line x1="1568.5" y1="796.5" x2="1568.5" y2="1273.5" class="loopLine"/><line x1="566" y1="1273.5" x2="1568.5" y2="1273.5" class="loopLine"/><line x1="566" y1="796.5" x2="566" y2="1273.5" class="loopLine"/><line x1="566" y1="939.5" x2="1568.5" y2="939.5" class="loopLine" style="stroke-dasharray: 3, 3;"/><line x1="566" y1="1077.5" x2="1568.5" y2="1077.5" class="loopLine" style="stroke-dasharray: 3, 3;"/><polygon points="566,796.5 616,796.5 616,809.5 607.6,816.5 566,816.5" class="labelBox"/><text x="591" y="809" text-anchor="middle" dominant-baseline="middle" alignment-baseline="middle" class="labelText" style="font-size: 16px; font-weight: 400;">alt</text><text x="1092.25" y="814" text-anchor="middle" class="loopText" style="font-size: 16px; font-weight: 400;"><tspan x="1092.25">[Symlink missing]</tspan></text><text x="1067.25" y="957" text-anchor="middle" class="sectionTitle" style="font-size: 16px; font-weight: 400;">[Symlink exists]</text><text x="1067.25" y="1095" text-anchor="middle" class="sectionTitle" style="font-size: 16px; font-weight: 400;">[Real dir conflict]</text></g><g data-et="control-structure" data-id="i27"><line x1="556" y1="705.5" x2="1578.5" y2="705.5" class="loopLine"/><line x1="1578.5" y1="705.5" x2="1578.5" y2="1283.5" class="loopLine"/><line x1="556" y1="1283.5" x2="1578.5" y2="1283.5" class="loopLine"/><line x1="556" y1="705.5" x2="556" y2="1283.5" class="loopLine"/><polygon points="556,705.5 606,705.5 606,718.5 597.6,725.5 556,725.5" class="labelBox"/><text x="581" y="718" text-anchor="middle" dominant-baseline="middle" alignment-baseline="middle" class="labelText" style="font-size: 16px; font-weight: 400;">loop</text><text x="1092.25" y="723" text-anchor="middle" class="loopText" style="font-size: 16px; font-weight: 400;"><tspan x="1092.25">[for each skill in Z-ai-platform/skills/skills/*/]</tspan></text></g><g data-et="note" data-id="i30"><rect x="-11" y="1420" fill="#EDF2AE" stroke="#666" width="172" height="88" class="note"/><text x="75" y="1425" text-anchor="middle" dominant-baseline="middle" alignment-baseline="middle" class="noteText" dy="1em" style="font-size: 16px; font-weight: 400;"><tspan x="75">Now Agent can call</tspan></text><text x="75" y="1442" text-anchor="middle" dominant-baseline="middle" alignment-baseline="middle" class="noteText" dy="1em" style="font-size: 16px; font-weight: 400;"><tspan x="75">any of the toolkit skills:</tspan></text><text x="75" y="1459" text-anchor="middle" dominant-baseline="middle" alignment-baseline="middle" class="noteText" dy="1em" style="font-size: 16px; font-weight: 400;"><tspan x="75">skill-creator, gepetto,</tspan></text><text x="75" y="1476" text-anchor="middle" dominant-baseline="middle" alignment-baseline="middle" class="noteText" dy="1em" style="font-size: 16px; font-weight: 400;"><tspan x="75">fullstack-dev, etc.</tspan></text></g><g class="actor-man actor-top" name="U" data-et="participant" data-type="actor" data-id="U" style="stroke: rgb(22, 101, 52);"><line id="actor-man-torso0" x1="75" y1="25" x2="75" y2="45"/><line id="actor-man-arms0" x1="57" y1="33" x2="93" y2="33"/><line x1="57" y1="60" x2="75" y2="45"/><line x1="75" y1="45" x2="91" y2="60"/><circle cx="75" cy="10" r="15" width="150" height="65"/><text x="75" y="67.5" dominant-baseline="central" alignment-baseline="central" class="actor actor-man" style="text-anchor: middle; font-size: 16px; font-weight: 400;"><tspan x="75" dy="0">User</tspan></text></g><text x="210" y="144" text-anchor="middle" dominant-baseline="middle" alignment-baseline="middle" class="messageText" dy="1em" style="font-size: 16px; font-weight: 400;">bash &lt;(curl bootstrap.sh)</text><line x1="82" y1="175" x2="344" y2="175" class="messageLine0" data-et="message" data-id="i2" data-from="U" data-to="SB" stroke-width="2" stroke="none" marker-end="url(#my-svg-arrowhead)" style="fill: none;"/><line x1="75" y1="175" x2="75" y2="175" stroke-width="0" marker-start="url(#my-svg-sequencenumber)"/><text x="75" y="179" font-family="sans-serif" font-size="12px" text-anchor="middle" class="sequenceNumber">1</text><text x="461" y="190" text-anchor="middle" dominant-baseline="middle" alignment-baseline="middle" class="messageText" dy="1em" style="font-size: 16px; font-weight: 400;">invoke bootstrap.sh</text><line x1="355" y1="221" x2="573" y2="221" class="messageLine0" data-et="message" data-id="i3" data-from="SB" data-to="BS" stroke-width="2" stroke="none" marker-end="url(#my-svg-arrowhead)" style="fill: none;"/><line x1="348" y1="221" x2="348" y2="221" stroke-width="0" marker-start="url(#my-svg-sequencenumber)"/><text x="348" y="225" font-family="sans-serif" font-size="12px" text-anchor="middle" class="sequenceNumber">2</text><text x="727" y="345" text-anchor="middle" dominant-baseline="middle" alignment-baseline="middle" class="messageText" dy="1em" style="font-size: 16px; font-weight: 400;">clone --recurse-submodules</text><text x="727" y="362" text-anchor="middle" dominant-baseline="middle" alignment-baseline="middle" class="messageText" dy="1em" style="font-size: 16px; font-weight: 400;">github.com/stsgs1980/Z-ai-platform</text><line x1="584" y1="392.5" x2="875" y2="392.5" class="messageLine0" data-et="message" data-id="i6" data-from="BS" data-to="Git" stroke-width="2" stroke="none" marker-end="url(#my-svg-arrowhead)" style="fill: none;"/><line x1="577" y1="392.5" x2="577" y2="392.5" stroke-width="0" marker-start="url(#my-svg-sequencenumber)"/><text x="577" y="396.5" font-family="sans-serif" font-size="12px" text-anchor="middle" class="sequenceNumber">3</text><text x="1103" y="408" text-anchor="middle" dominant-baseline="middle" alignment-baseline="middle" class="messageText" dy="1em" style="font-size: 16px; font-weight: 400;">write /home/z/my-project/Z-ai-platform/</text><line x1="886" y1="438.5" x2="1325.5" y2="438.5" class="messageLine0" data-et="message" data-id="i7" data-from="Git" data-to="FS" stroke-width="2" stroke="none" marker-end="url(#my-svg-arrowhead)" style="fill: none;"/><line x1="879" y1="438.5" x2="879" y2="438.5" stroke-width="0" marker-start="url(#my-svg-sequencenumber)"/><text x="879" y="442.5" font-family="sans-serif" font-size="12px" text-anchor="middle" class="sequenceNumber">4</text><text x="727" y="499" text-anchor="middle" dominant-baseline="middle" alignment-baseline="middle" class="messageText" dy="1em" style="font-size: 16px; font-weight: 400;">pull --recurse-submodules --ff-only</text><line x1="584" y1="529.5" x2="875" y2="529.5" class="messageLine0" data-et="message" data-id="i9" data-from="BS" data-to="Git" stroke-width="2" stroke="none" marker-end="url(#my-svg-arrowhead)" style="fill: none;"/><line x1="577" y1="529.5" x2="577" y2="529.5" stroke-width="0" marker-start="url(#my-svg-sequencenumber)"/><text x="577" y="533.5" font-family="sans-serif" font-size="12px" text-anchor="middle" class="sequenceNumber">5</text><text x="1103" y="545" text-anchor="middle" dominant-baseline="middle" alignment-baseline="middle" class="messageText" dy="1em" style="font-size: 16px; font-weight: 400;">update existing checkout</text><line x1="886" y1="575.5" x2="1325.5" y2="575.5" class="messageLine0" data-et="message" data-id="i10" data-from="Git" data-to="FS" stroke-width="2" stroke="none" marker-end="url(#my-svg-arrowhead)" style="fill: none;"/><line x1="879" y1="575.5" x2="879" y2="575.5" stroke-width="0" marker-start="url(#my-svg-sequencenumber)"/><text x="879" y="579.5" font-family="sans-serif" font-size="12px" text-anchor="middle" class="sequenceNumber">6</text><text x="952" y="665" text-anchor="middle" dominant-baseline="middle" alignment-baseline="middle" class="messageText" dy="1em" style="font-size: 16px; font-weight: 400;">mkdir -p /home/z/my-project/skills/</text><line x1="584" y1="695.5" x2="1325.5" y2="695.5" class="messageLine0" data-et="message" data-id="i13" data-from="BS" data-to="FS" stroke-width="2" stroke="none" marker-end="url(#my-svg-arrowhead)" style="fill: none;"/><line x1="577" y1="695.5" x2="577" y2="695.5" stroke-width="0" marker-start="url(#my-svg-sequencenumber)"/><text x="577" y="699.5" font-family="sans-serif" font-size="12px" text-anchor="middle" class="sequenceNumber">7</text><text x="952" y="756" text-anchor="middle" dominant-baseline="middle" alignment-baseline="middle" class="messageText" dy="1em" style="font-size: 16px; font-weight: 400;">check if symlink exists</text><line x1="584" y1="786.5" x2="1325.5" y2="786.5" class="messageLine0" data-et="message" data-id="i15" data-from="BS" data-to="FS" stroke-width="2" stroke="none" marker-end="url(#my-svg-arrowhead)" style="fill: none;"/><line x1="577" y1="786.5" x2="577" y2="786.5" stroke-width="0" marker-start="url(#my-svg-sequencenumber)"/><text x="577" y="790.5" font-family="sans-serif" font-size="12px" text-anchor="middle" class="sequenceNumber">8</text><text x="952" y="847" text-anchor="middle" dominant-baseline="middle" alignment-baseline="middle" class="messageText" dy="1em" style="font-size: 16px; font-weight: 400;">ln -s &lt;skill_dir&gt; &lt;sandbox_skills&gt;/&lt;name&gt;</text><line x1="584" y1="877.5" x2="1325.5" y2="877.5" class="messageLine0" data-et="message" data-id="i17" data-from="BS" data-to="FS" stroke-width="2" stroke="none" marker-end="url(#my-svg-arrowhead)" style="fill: none;"/><line x1="577" y1="877.5" x2="577" y2="877.5" stroke-width="0" marker-start="url(#my-svg-sequencenumber)"/><text x="577" y="881.5" font-family="sans-serif" font-size="12px" text-anchor="middle" class="sequenceNumber">9</text><text x="952" y="985" text-anchor="middle" dominant-baseline="middle" alignment-baseline="middle" class="messageText" dy="1em" style="font-size: 16px; font-weight: 400;">refresh symlink (rm + ln -s)</text><line x1="584" y1="1015.5" x2="1325.5" y2="1015.5" class="messageLine0" data-et="message" data-id="i20" data-from="BS" data-to="FS" stroke-width="2" stroke="none" marker-end="url(#my-svg-arrowhead)" style="fill: none;"/><line x1="577" y1="1015.5" x2="577" y2="1015.5" stroke-width="0" marker-start="url(#my-svg-sequencenumber)"/><text x="577" y="1019.5" font-family="sans-serif" font-size="12px" text-anchor="middle" class="sequenceNumber">10</text><text x="952" y="1123" text-anchor="middle" dominant-baseline="middle" alignment-baseline="middle" class="messageText" dy="1em" style="font-size: 16px; font-weight: 400;">mv &lt;name&gt; &lt;name&gt;.sandbox-backup</text><line x1="584" y1="1153.5" x2="1325.5" y2="1153.5" class="messageLine0" data-et="message" data-id="i23" data-from="BS" data-to="FS" stroke-width="2" stroke="none" marker-end="url(#my-svg-arrowhead)" style="fill: none;"/><line x1="577" y1="1153.5" x2="577" y2="1153.5" stroke-width="0" marker-start="url(#my-svg-sequencenumber)"/><text x="577" y="1157.5" font-family="sans-serif" font-size="12px" text-anchor="middle" class="sequenceNumber">11</text><text x="952" y="1169" text-anchor="middle" dominant-baseline="middle" alignment-baseline="middle" class="messageText" dy="1em" style="font-size: 16px; font-weight: 400;">ln -s &lt;skill_dir&gt; &lt;sandbox_skills&gt;/&lt;name&gt;</text><line x1="584" y1="1199.5" x2="1325.5" y2="1199.5" class="messageLine0" data-et="message" data-id="i24" data-from="BS" data-to="FS" stroke-width="2" stroke="none" marker-end="url(#my-svg-arrowhead)" style="fill: none;"/><line x1="577" y1="1199.5" x2="577" y2="1199.5" stroke-width="0" marker-start="url(#my-svg-sequencenumber)"/><text x="577" y="1203.5" font-family="sans-serif" font-size="12px" text-anchor="middle" class="sequenceNumber">12</text><text x="464" y="1299" text-anchor="middle" dominant-baseline="middle" alignment-baseline="middle" class="messageText" dy="1em" style="font-size: 16px; font-weight: 400;">print summary</text><text x="464" y="1316" text-anchor="middle" dominant-baseline="middle" alignment-baseline="middle" class="messageText" dy="1em" style="font-size: 16px; font-weight: 400;">(Linked: N, Skipped: M)</text><line x1="582" y1="1347.5" x2="352" y2="1347.5" class="messageLine0" data-et="message" data-id="i28" data-from="BS" data-to="SB" stroke-width="2" stroke="none" marker-end="url(#my-svg-arrowhead)" style="fill: none;"/><line x1="577" y1="1347.5" x2="577" y2="1347.5" stroke-width="0" marker-start="url(#my-svg-sequencenumber)"/><text x="577" y="1351.5" font-family="sans-serif" font-size="12px" text-anchor="middle" class="sequenceNumber">13</text><text x="213" y="1363" text-anchor="middle" dominant-baseline="middle" alignment-baseline="middle" class="messageText" dy="1em" style="font-size: 16px; font-weight: 400;">35+ custom skills available</text><text x="213" y="1380" text-anchor="middle" dominant-baseline="middle" alignment-baseline="middle" class="messageText" dy="1em" style="font-size: 16px; font-weight: 400;">via Skill(command="...")</text><line x1="353" y1="1410" x2="79" y2="1410" class="messageLine1" data-et="message" data-id="i29" data-from="SB" data-to="U" stroke-width="2" stroke="none" marker-end="url(#my-svg-arrowhead)" style="stroke-dasharray: 3, 3; fill: none;"/><line x1="348" y1="1410" x2="348" y2="1410" stroke-width="0" marker-start="url(#my-svg-sequencenumber)"/><text x="348" y="1414" font-family="sans-serif" font-size="12px" text-anchor="middle" class="sequenceNumber">14</text><text x="210" y="1523" text-anchor="middle" dominant-baseline="middle" alignment-baseline="middle" class="messageText" dy="1em" style="font-size: 16px; font-weight: 400;">Skill(command="skill-creator")</text><line x1="82" y1="1554" x2="344" y2="1554" class="messageLine0" data-et="message" data-id="i31" data-from="U" data-to="SB" stroke-width="2" stroke="none" marker-end="url(#my-svg-arrowhead)" style="fill: none;"/><line x1="75" y1="1554" x2="75" y2="1554" stroke-width="0" marker-start="url(#my-svg-sequencenumber)"/><text x="75" y="1558" font-family="sans-serif" font-size="12px" text-anchor="middle" class="sequenceNumber">15</text><text x="964" y="1569" text-anchor="middle" dominant-baseline="middle" alignment-baseline="middle" class="messageText" dy="1em" style="font-size: 16px; font-weight: 400;">lookup symlink</text><line x1="355" y1="1600" x2="1579.5" y2="1600" class="messageLine0" data-et="message" data-id="i32" data-from="SB" data-to="SK" stroke-width="2" stroke="none" marker-end="url(#my-svg-arrowhead)" style="fill: none;"/><line x1="348" y1="1600" x2="348" y2="1600" stroke-width="0" marker-start="url(#my-svg-sequencenumber)"/><text x="348" y="1604" font-family="sans-serif" font-size="12px" text-anchor="middle" class="sequenceNumber">16</text><text x="967" y="1615" text-anchor="middle" dominant-baseline="middle" alignment-baseline="middle" class="messageText" dy="1em" style="font-size: 16px; font-weight: 400;">/home/z/my-project/skills/skill-creator/SKILL.md</text><line x1="1588.5" y1="1646" x2="352" y2="1646" class="messageLine1" data-et="message" data-id="i33" data-from="SK" data-to="SB" stroke-width="2" stroke="none" marker-end="url(#my-svg-arrowhead)" style="stroke-dasharray: 3, 3; fill: none;"/><line x1="1583.5" y1="1646" x2="1583.5" y2="1646" stroke-width="0" marker-start="url(#my-svg-sequencenumber)"/><text x="1583.5" y="1650" font-family="sans-serif" font-size="12px" text-anchor="middle" class="sequenceNumber">17</text><text x="213" y="1661" text-anchor="middle" dominant-baseline="middle" alignment-baseline="middle" class="messageText" dy="1em" style="font-size: 16px; font-weight: 400;">skill loaded into context</text><line x1="353" y1="1690" x2="79" y2="1690" class="messageLine1" data-et="message" data-id="i34" data-from="SB" data-to="U" stroke-width="2" stroke="none" marker-end="url(#my-svg-arrowhead)" style="stroke-dasharray: 3, 3; fill: none;"/><line x1="348" y1="1690" x2="348" y2="1690" stroke-width="0" marker-start="url(#my-svg-sequencenumber)"/><text x="348" y="1694" font-family="sans-serif" font-size="12px" text-anchor="middle" class="sequenceNumber">18</text><g class="actor-man actor-bottom" name="U" style="stroke: rgb(22, 101, 52);"><line id="actor-man-torso6" x1="75" y1="1735" x2="75" y2="1755"/><line id="actor-man-arms6" x1="57" y1="1743" x2="93" y2="1743"/><line x1="57" y1="1770" x2="75" y2="1755"/><line x1="75" y1="1755" x2="91" y2="1770"/><circle cx="75" cy="1720" r="15" width="150" height="65"/><text x="75" y="1777.5" dominant-baseline="central" alignment-baseline="central" class="actor actor-man" style="text-anchor: middle; font-size: 16px; font-weight: 400;"><tspan x="75" dy="0">User</tspan></text></g></svg>